<?xml version="1.0" encoding="utf-8"?>
<!-- Generator: Adobe Illustrator 24.1.1, SVG Export Plug-In . SVG Version: 6.00 Build 0)  -->
<svg version="1.1" id="vector" xmlns="http://www.w3.org/2000/svg" xmlns:xlink="http://www.w3.org/1999/xlink" x="0px" y="0px"
	 viewBox="0 0 432 432" style="enable-background:new 0 0 432 432;" xml:space="preserve">
<style type="text/css">
	.st0{fill:#DB4437;}
	.st1{fill:#4285F4;}
	.st2{fill:#F4B400;}
	.st3{fill:#0F9D58;}
</style>
<path id="path" class="st0" d="M216.1,145.6c-67.6,0-122.7,10.4-122.7,23.3v66.8c21-11,69.2-18.8,125.3-18.8
	c51.9,0,97.2,6.6,120.1,16.4v-64.5C338.8,155.9,283.7,145.6,216.1,145.6z"/>
<path id="path_1" class="st1" d="M404.1,152.5l27.9-16.2L216.1,15.3L0,136.4l79.2,45.9v-20h0.2c2.2-14.4,62.7-25.7,136.7-25.7
	c75.6,0,136.9,12,136.9,26.5v19.2l42.5-24.5v74.4h-16.2v34.1l20.6-14l20,14l0.4-34.1h-16.2V152.5z"/>
<path id="path_2" class="st2" d="M86.8,255.5c1.4-2.8,3.6-3.8,6.6-3.6c3,0.2,6.2,0,9.6,0v-9.6c0-3.8,1.6-5.6,5.4-5.8
	c21-2.4,42.1-5,63.1-7.4c14.6-1.6,28.5,0.2,41.9,6c1.6,0.6,2.8,0.6,4.6,0c13.8-6,27.9-7.8,42.9-5.8c17.8,2.2,35.5,4.2,53.1,6.4
	c3.2,0.4,6.4,0.6,9.4,1.2c3.2,0.4,4.8,2.2,4.8,5.4v10.2h10c4.6,0,6.2,1.6,6.2,6.2v152c0,4.4-1.6,6-6,6H93c-2.8,0-4.8-1-6-3.6
	C86.8,360.5,86.8,308,86.8,255.5z M210.7,384.2c0.2-0.8,0.2-1.2,0.2-1.6V245.9c0-1.4-0.6-2-1.8-2.6c-11-4.8-22.5-6.6-34.3-5.2
	c-12.6,1.4-24.9,2.8-37.3,4.2l-24.5,3V386h1.2c16.4-2,32.5-3.8,48.9-5.8c8.4-1,16.6-2.2,24.9-1.4
	C195.3,379.6,202.9,381.4,210.7,384.2z M220.3,384.2c1.4-0.4,2.2-0.6,3.2-1c11.8-4.2,23.9-5.4,36.3-3.8c19.2,2.4,38.3,4.6,57.3,6.8
	c0.4,0,1,0,1.4-0.2V245.5c-3-0.4-5.8-0.6-8.6-1c-16.4-2-32.9-3.8-49.5-5.8c-13-1.6-25.5-0.6-37.7,4.6c-2,0.8-2.8,1.8-2.8,4
	c0.2,44.7,0,89.4,0,134.1C220.3,382,220.3,383,220.3,384.2z M328,261.5V390c0,4.8-2,6.6-6.8,6c-2.4-0.2-5-0.6-7.4-1
	c-18-2.2-35.9-4.2-53.9-6.4c-13.8-1.6-27.1-0.4-39.5,5.8c-3.4,1.6-6.4,1.6-10-0.2c-10.6-5.2-21.7-7.4-33.3-6.2
	c-16.4,1.6-32.7,3.8-49.1,5.6c-6.2,0.6-12.6,1.6-18.8,2.2c-4.2,0.4-6.4-1.4-6.4-5.8V261.3h-6.4v144.9h237.8V261.1
	C332.2,261.5,330.4,261.5,328,261.5z"/>
<path id="path_3" class="st3" d="M201.3,324.1c3.2,0.6,4.8,3,4,5.8c-0.6,2.4-3,4-5.8,3.2c-14.4-4-28.5-1.4-42.9,0.2
	c-10.4,1.2-21,2.4-31.3,3.8c-3.4,0.4-5.8-1.4-6-4.2c-0.2-2.8,1.6-4.8,5.2-5.4c17-2,33.7-4,50.7-5.8c2.2-0.2,4.6-0.2,6.8-0.4
	 M201.1,259.1c3.2,0.6,4.8,3,4.2,5.8c-0.6,2.8-3.2,4.2-6.2,3.4c-12-3.4-24.1-2.2-36.3-0.6c-12.6,1.6-25.1,3-37.7,4.4
	c-4,0.4-6.6-2-5.8-5.4c0.4-2.4,2.2-3.4,4.4-3.8c6.2-0.8,12.6-1.6,18.8-2.2c11.6-1.4,23.3-2.6,34.9-3.8c2-0.2,4-0.2,6-0.4
	 M200.1,311.8c-2.4-0.4-5.4-1.2-8.2-1.6c-10.6-1.8-21,0-31.5,1.2l-35.3,4.2c-3,0.4-5.4-1.4-5.8-4c-0.4-2.8,1.4-5,4.6-5.4
	c12.8-1.6,25.7-3.2,38.5-4.6c7.8-0.8,16-1.4,23.7-1.4c5.2,0,10.4,1.4,15.6,2.4c2.8,0.6,4,3,3.6,5.6
	C204.9,310.6,202.9,311.8,200.1,311.8z M182.4,352.5c-9,1-17,1.8-24.9,2.8c-10.6,1.2-21.2,2.4-31.5,3.8c-0.4,0-0.6,0-1,0.2
	c-3.2,0.2-5.4-1.4-5.8-4c-0.4-2.8,1.4-5,4.8-5.4c4.8-0.6,9.6-1.2,14.4-1.6c10.8-1.2,21.4-2.4,31.9-3.8c10.4-1.4,20.8-0.8,31.1,1.8
	c3,0.8,4.6,3.2,4,6c-0.6,2.6-3,3.8-6.2,3.2C193.4,354.1,187.6,353.3,182.4,352.5z M200.1,290c-2.2-0.4-5-1-7.6-1.6
	c-9.6-1.6-19.2-0.4-28.7,0.8c-13,1.6-25.9,3-38.9,4.6c-2.8,0.4-5-1.4-5.6-4c-0.4-2.8,1.2-5,4.4-5.4c9.6-1.2,19.2-2.4,28.9-3.4
	c8.8-1,17.8-2.2,26.5-2.8c7.8-0.6,15.4,0.4,22.7,2.6c2.8,0.8,4,3,3.6,5.6C204.9,288.6,203.1,290,200.1,290z M305.7,359.1
	c-9-1-18.6-2.2-28.1-3.2c-10.2-1-20.2-2.2-30.5-2.6c-5-0.2-10.2,1.2-15.2,2c-3.4,0.6-5.8-0.6-6.6-3.4c-0.6-2.8,1-5,4.4-5.8
	c11.4-3,22.7-2.8,34.3-1.4c13.8,1.6,27.5,3.2,41.1,4.8c0.6,0.2,1.4,0.2,2,0.2c3,0.6,4.6,2.6,4.2,5.4
	C311.3,357.5,309.1,359.1,305.7,359.1z M248,299.4c9.4,1,17.8,1.8,25.7,2.8c10.8,1.2,21.6,2.6,32.3,3.8c3.8,0.4,5.8,2.4,5.2,5.6
	c-0.4,2.8-3,4.2-6.6,3.8c-18-2-35.7-4.4-53.7-5.8c-6-0.4-12.2,1.2-18.4,1.6c-0.8,0.2-1.4,0.4-2.2,0.4c-3,0.2-4.8-1.2-5.4-3.8
	c-0.4-2.4,1-4.8,3.8-5.4C235.7,301.4,242.4,300.4,248,299.4z M248.4,321.4c9,1,17,1.8,24.9,2.8c10.8,1.2,21.6,2.6,32.3,3.8
	c0.4,0.2,1,0.2,1.4,0.2c3,0.6,4.6,2.6,4.2,5.4c-0.4,2.6-2.4,4.2-5.4,4c-5-0.4-10-1.2-15-1.6c-13-1.4-25.7-3-38.7-4.2
	c-6.6-0.6-13,0.2-19.6,1.6c-4.6,1.2-7,0-7.8-3.2c-0.6-3,1.2-5.4,5.8-6C237.1,322.8,243,322.2,248.4,321.4z M247.2,256.1
	c8.4,1,16.6,1.6,24.5,2.6c11,1.2,21.7,2.6,32.7,3.8c1,0.2,2,0.2,3,0.4c2.8,0.6,4.2,2.8,3.8,5.4c-0.4,2.4-2.4,4.2-5,4
	c-4-0.4-8.2-1-12.2-1.4c-13.8-1.6-27.5-3.2-41.5-4.8c-7.2-0.6-14,0.4-21,2c-1.6,0.4-3.8,0.2-4.8-0.8c-1.2-0.8-1.6-2.8-1.6-4.2
	c0-2.2,2-3.4,4-4C235.5,257.9,241.6,257.1,247.2,256.1z M273.6,280.7c11,1.2,21.9,2.6,32.9,4c3.8,0.4,5.6,2.4,5,5.6
	c-0.4,2.8-2.8,4.2-6.4,3.8c-17.4-2-34.9-4-52.3-5.8c-6.8-0.6-13.6,0.4-20.2,1.8c-0.4,0.2-1,0.2-1.4,0.4c-3.2,0.4-5.4-1-5.8-3.8
	c-0.6-2.6,1-4.8,4-5.6c4.6-1,9.2-1.6,13.8-2.4c2.2-0.4,4.6,0,6.8,0"/>
</svg>
